<svg xmlns="http://www.w3.org/2000/svg" viewBox="0 0 298.4 70.2"><switch><g><g fill="#D11242"><path d="M292.1 19.3L146.3 0h-.4L.1 19.3l-.1 3L146.1 2.9l145.8 19.4zM288.7 42.7c0-2.8 2.2-4.8 4.9-4.8 2.6 0 4.8 2 4.8 4.8s-2.2 4.8-4.8 4.8c-2.7 0-4.9-2-4.9-4.8zm4.8 4c2.2 0 3.9-1.7 3.9-4s-1.7-4-3.9-4-3.9 1.7-3.9 4 1.7 4 3.9 4zm-1-1.2h-.8V40h2.1c1.3 0 1.9.5 1.9 1.6 0 1-.6 1.4-1.4 1.5l1.6 2.4h-.9l-1.5-2.4h-1v2.4zm1-3.1c.7 0 1.3 0 1.3-.9 0-.7-.6-.8-1.2-.8h-1.1v1.7h1zM235.8 50c-.6-6.4-4-9.9-10-10.1h-.5c-2.5 0-7.5.7-11.1 3.8-1.6 1.4-3 3.5-3.2 3.8-.9 1.4-1.3 2.8-1.8 4.7-.5 2.2-1 5.5-.8 7.9.6 7.1 3.8 10.1 10.5 10.1 4.8 0 9.3-2.1 13-6 2-2 2.5-3.8 3.2-6.4.5-2.1.9-5.5.7-7.8zm-10.7 15.4c-1.1 1.2-2.4 1.8-3.9 1.8-3.1 0-5-2.9-5.3-5.6-.4-4.5-.2-13.1 3.3-16.8 1.1-1.2 2.4-1.8 3.9-1.8 3.1 0 5 2.9 5.3 5.6.4 4.4.2 13-3.3 16.8zM287.1 58.9c-.3-3.8-3.8-5.8-6.7-6.4l-3.7-.8c-2.2-.5-4.7-1.2-4.9-3.5-.1-1.3.2-2.4.9-3.2.8-.9 2-1.3 3.6-1.3 2.3 0 4.7.9 6.8 2.6l.6 2.9c0 .1.1.1.2.1h1.2l.6-7.8c-1.8-.9-3.8-1.4-5.9-1.6-.4 0-.9-.1-1.3-.1-.8 0-1.4.1-2 .2-6.3.8-8.9 4.6-9.8 6.9-.2.5-.4 1.2-.5 1.8-.1.6-.1 1.2 0 1.9.4 4.6 4.4 6.3 7.8 7l2.8.6c2.8.5 4.2 1.8 4.4 3.9.1 1.2-.2 2.1-.8 2.9-1.1 1.2-3 1.4-4.4 1.4-2.3 0-6.3-1.4-8.1-3.4l-.6-2.8c0-.1-.1-.2-.2-.2h-1.2c-.1 0-.2.1-.2.2 0 .9 0 1.8-.1 2.7h-.1-.1c-.8.6-2.4 1.7-2.8 1.7-.4 0-.7-.4-.8-.9 0-.5 0-1.8.1-2.4l.2-1.5.1-1 3.4-30.6c.1-1.4.3-2.3.5-3.6 0-.1 0-.1-.1-.2l-.7-.6s-.1-.1-.2 0c-3.6 1.6-8.2 2.3-11.9 2.8-.1 0-.1.1-.1.1l-.3 1.7v.1l.1.1h2.8c1.6 0 2.2.7 2.4 2.5v1.7l-.5 7.4h.2v.1c-1.2-.5-2.7-.7-4.3-.8h-1.3c-.5 0-1.5 0-2.8.2-.8.1-1.6.3-2.2.5-2.9.9-6.2 2.8-8.1 6.8-.8 1.4-1.2 2.9-1.7 4.8-.5 2.2-1 5.5-.8 7.9.6 7.1 3.8 10.1 10.5 10.1 3 0 5.9-2 8.2-4.1-.1.4-.2.8-.1 1.2.1 1.3.9 2.8 2.7 2.8 1.5 0 4.7-1.8 7.5-3.9-.1.7-.1 1.3-.2 2 0 .1 0 .2.1.2 2.9.9 5.7 1.8 8.5 1.7 4.5-.1 9.8-1.1 12.7-6.9.5-1.1.7-2.1.6-3.9zm-34.6 6.4c-1.1 1.2-2.4 1.8-3.9 1.8-3.1 0-5-2.9-5.3-5.6-.4-4.5-.2-13.1 3.3-16.8 1.1-1.2 2.4-1.8 3.9-1.8 3.1 0 5 2.9 5.3 5.6.3 4.5.1 13.1-3.3 16.8zM72.7 50c-.6-6.6-4.2-10.1-10.4-10.1-4.8 0-9.1 2-13 6l-.1.1h-7.1l1.1-12.2c.3-3 1.2-3.1 2.8-3.2l2.6-.2c.1 0 .2-.1.2-.2l.1-2.2H29.1l-.1 2.1c0 .1.1.2.2.2l3.2.2c1.9.1 2.2.6 2.3 1.6.1 1 .1 2.2-.1 4.5l-.8 9.4H16l1.3-12.3c.3-3 1.2-3.1 2.8-3.2l2.6-.2c.1 0 .2-.1.2-.2L23 28H3.3l-.1 2.2c0 .1.1.2.2.2l3.2.2c1.9.1 2.2.6 2.3 1.6.1.9.1 2.1-.1 4.5L6.5 61.8c-.2 2.5-.5 4.1-.7 4.7-.4.8-1 1-1.9 1.1l-3 .2c-.1 0-.2.1-.2.2l-.1 2H20l.1-2.1c0-.1-.1-.2-.2-.2l-3-.2c-1.8-.1-2.3-.7-2.3-1.6-.1-.8 0-1.6 0-2.3l1.2-14.4h17.6l-1.1 12.5c-.2 2.5-.5 4.1-.7 4.7-.4.8-1 1-1.9 1.1l-3 .2c-.1 0-.2.1-.2.2l-.1 2.1h19.8l.1-2.1v-.1l-.1-.1-3.4-.2c-1.8-.1-2.3-.7-2.3-1.6-.1-.8 0-1.6 0-2.3l1.3-14.4H47c-.4.9-.6 1.8-.9 2.9-.5 2.1-1 5.5-.8 7.9.6 7.1 3.8 10.1 10.5 10.1 4.8 0 9.3-2.1 13-6 2-2 2.5-3.8 3.2-6.4.5-2 1-5.4.7-7.7zM62 65.4c-1.1 1.2-2.4 1.8-3.9 1.8-3.1 0-5-2.9-5.3-5.6-.4-4.5-.2-13.1 3.3-16.8 1.1-1.2 2.4-1.8 3.9-1.8 3.1 0 5 2.9 5.3 5.6.3 4.4.1 13-3.3 16.8z"/><path d="M118.8 63.4l-.7.5c-1.1.8-2.6 1.9-3.3 1.9-.4 0-.6-.2-.7-.6-.1-.7.1-2.7.5-5.6l1.7-11.3c.2-1.6.2-3.1.1-4.4-.2-1.5-1.1-2.9-2.8-2.9-.6 0-1.4.1-2.4.4-1.2.4-2.8 1-4.7 2.4-4.6 3.4-7.6 7.7-7.6 7.7l-.3 1.9.5-3.4c.5-2.7.6-4.6.5-5.7-.3-2.1-1.3-3.2-3-3.2-.5 0-1 .1-1.8.3-1.3.3-2.9.9-5 2.5-3.9 3-6.6 6.8-7.2 7.7l1.1-7.8.5-3.4c0-.1 0-.1-.1-.2l-.8-.5h-.2c-3.6 1.4-10.2 2.4-13.9 2.9-.1 0-.1.1-.1.1l1.1 1.2v.1s.1 0 .1.1h3.6c1.6 0 2.3.6 2.5 2.1.1.4.1.9.1 1.5 0 0-.1 1.8-.1 2.6v1.6c-.1 1.9-.2 4.2-.4 6-.2 1.8-1 7.8-2 12.4h7.2c0-1.3.2-4.5.7-7.5 1.1-6.4 4.1-11 6.5-13.7 1.2-1.4 2.4-1.5 3.2-1.5.6 0 1 .7 1.1 1.4.3 2.1-.1 5.1-.4 7.6-.1.4-.1.9-.2 1.3-.2 1.8-1 7.9-2 12.4h7.3c-.2-3.1.1-6.7.9-9.8.8-3.3 2.2-6.2 4.2-8.8 1-1.2 3.4-4.1 5.1-4.1.6 0 1 .3 1.1.9.2 1.3-.8 7-1.1 8.3-.3 1.4-1.4 9.6-1.1 11.9.2 1.1 1.3 1.8 2.9 1.8 2.2 0 6.3-1.7 9.7-4.5l-.3-2.6z"/><path d="M207.9 50c-.6-6.4-4-9.9-10-10.1h-.5c-2.5 0-7.5.7-11.1 3.8-.8.7-1.5 1.5-2 2.2h-18.8c-.2 0-.3.1-.3.3l-.4 2.7c0 .1 0 .2.1.2.1.1.1.1.2.1h5.9l-1 14.7c-1 1.9-5.5 3.1-10.1 2.1-5.1-1.5-8.2-5.9-8.8-12.7-.6-7 .9-16.5 4.9-20.2 2.9-2.7 7.9-3 9.8-3 3.7 0 7.7 1.6 9.1 2.4.2.1.4.2.5.3.4.2.4.2.4.6l.4 5.6c0 .2.2.3.3.3h2.2c.2 0 .3-.1.3-.3.2-1.3.4-2.6.6-4.1.2-2 .5-4 .9-6.2 0-.2 0-.3-.2-.4-4-1.9-8.2-2.8-12.5-2.8-2.2 0-5.4.2-7.9 1-12.3 3.9-18.6 13.8-17.5 27.1.1 1.5.4 2.8.7 4.1-2.1 2.5-9.7 7.7-13.2 8-.4 0-1.1 0-1.8-.3-1.4-.6-2-1.8-2.4-2.6-.2-.5-.5-1.5-.4-2.7 0-1 0-1.9.2-3.4 3-.1 6.9-1.2 9.6-2.6 3-1.5 6.4-3.9 5.9-8.9-.2-2.2-1.4-3.8-3.3-4.7-.9-.4-1.9-.6-3.4-.7-1.5 0-3.2.1-4.5.5-7.5 1.8-9.6 8.7-9.6 8.7-.6 1.4-1 3-1.4 4.7-.4 2-1 6.2-.8 8.6 0 .4.1.7.1 1 .1.3.4 1.8.6 2.3.2.6.8 1.5 1.3 2.1 1.3 1.5 3.1 2.3 5.3 2.4 2.3.2 7-.1 12.3-4.2 4-3.2 5.8-4.7 6.5-5.4 2.9 6.2 9.1 9.6 18.1 9.6h.6c4.7-.1 8-1.3 12.3-2.9l.9-.3c.1 0 .2-.2.2-.3l1.2-17.3h4.7c-.4.9-.6 1.8-.9 2.9-.5 2.2-1 5.5-.8 7.9.6 7.1 3.8 10.1 10.5 10.1 4.8 0 9.3-2.1 13-6 2-2 2.5-3.8 3.2-6.4.6-2.1 1-5.5.8-7.8zm-82 1.9c1-5.9 2.9-8.7 6-8.7 1.6 0 2.8 1.2 2.9 3 .1 1.2-.1 2.3-.5 3.3-.3.6-1.3 2.7-4.3 3.7-1.6.5-3.6.6-4.3.6.1-.5.1-.9.2-1.2v-.7zm71.2 13.5c-1.1 1.2-2.4 1.8-3.9 1.8-3.1 0-5-2.9-5.3-5.6-.4-4.5-.2-13.1 3.3-16.8 1.1-1.2 2.4-1.8 3.9-1.8 3.1 0 5 2.9 5.3 5.6.4 4.4.1 13-3.3 16.8z"/></g></g></switch></svg>