<svg xmlns="http://www.w3.org/2000/svg" viewBox="0 0 670 148.8"><switch><g><path fill="#B5CE2F" d="M0 0h650v148.8H0z"/><path fill="#8CAD6E" d="M16.1 16.1h617.8v116.6H16.1z"/><path fill="#FFF" d="M49.8 102.6v-7.1h7.4V53.6h-7.4v-7.4H75v7.4h-7.5v16.5h24.6V53.6h-7.4v-7.4h25.1v7.4h-7.3v41.9h7.3v7.1H84.7v-7.1h7.4V77.1H67.5v18.4H75v7.1zM119.5 74.4c0-17.1 12.3-29.4 28.6-29.4s28.5 12.2 28.5 29.4c0 17.1-12.2 29.4-28.5 29.4s-28.6-12.3-28.6-29.4m45.7 0c0-14.7-8-21.8-17.1-21.8-9 0-17.1 7.1-17.1 21.8 0 14.7 8.1 21.8 17.1 21.8 9 0 17.1-7.2 17.1-21.8M220.4 103l-19-47.6v39.8h7.6v7.4h-22.8v-7.4h7.3V53.6h-7.3v-7.4h22.7l14.9 38.6 14.3-38.6h21.7v7.4h-7.3v41.6h7.3v7.4h-24.5v-7.4h6.8V54.4L223.8 103zM274.9 95.9h7.4V53.2h-7.4v-7h39.9v15.9h-9.2v-8.9h-13v16.6h12.6v7h-12.6v19.1h13v-9.6h9.2v16.3h-39.9z"/><path fill="#3F2A2E" d="M384.7 95.9h7.3V53.2h-7.3v-7h39.9v15.9h-9.2v-8.9h-13v16.6h12.5v7h-12.5v19.1h13v-9.6h9.2v16.3h-39.9zM463.5 102.6h-21.9v-7.4h7.3V53.6h-7.3v-7.4h19.5l22 42.9V53.6h-6.6v-7.4h21.4v7.4h-7.4v49h-11l-23.1-43.7v36.3h7.1zM560.5 95.9h7.3V53.2h-7.3v-7h39.9v15.9h-9.2v-8.9h-13v16.6h12.6v7h-12.6v19.1h13v-9.6h9.2v16.3h-39.9zM341.7 101.4v2.4H333V86.9h8.7V93c2.1 1.8 4.9 3.1 9.1 3.1 4.3 0 7.8-1.6 7.8-6.8 0-11.9-25.6-11.5-25.6-29.1 0-10.4 7.8-15.2 15.7-15.2 4.3 0 7.6 1.1 10.3 2.5V45h8.8v16.9H359v-6.5c-2.1-1.9-4.5-2.8-8.2-2.8-4.3 0-7.5 1.6-7.5 6.1 0 11 25.6 9.5 25.6 29.9 0 10.4-8.9 15.2-16.1 15.2-4.6 0-8.3-.8-11.1-2.4M518.9 101.4v2.4h-8.7V86.9h8.7V93c2.1 1.8 4.9 3.1 9.1 3.1 4.3 0 7.8-1.6 7.8-6.8 0-11.9-25.6-11.5-25.6-29.1 0-10.4 7.8-15.2 15.7-15.2 4.3 0 7.6 1.1 10.3 2.5V45h8.8v16.9h-8.8v-6.5c-2.1-1.9-4.5-2.8-8.2-2.8-4.3 0-7.5 1.6-7.5 6.1 0 11 25.6 9.5 25.6 29.9 0 10.4-8.9 15.2-16.1 15.2-4.7 0-8.4-.8-11.1-2.4"/><g><path fill="#B5CE2F" d="M656.5 142.5h-2.3v-1.2h5.9v1.2h-2.3v6.3h-1.4v-6.3zm5.1-1.2h2.2l2 5.7h.1l2-5.7h2.2v7.5h-1.4v-6.3l-2.2 6.3h-1.1l-2.2-6.3v6.3h-1.4v-7.5z"/></g></g></switch></svg>