<?xml version="1.0" encoding="UTF-8"?>
<svg width="1559px" height="301px" viewBox="0 0 1559 301" version="1.1" xmlns="http://www.w3.org/2000/svg" xmlns:xlink="http://www.w3.org/1999/xlink">
    <title>Marshalls-Logo</title>
    <defs>
        <polygon id="path-1" points="0.798724638 0.796086856 165.122322 0.796086856 165.122322 194.855556 0.798724638 194.855556"></polygon>
        <polygon id="path-3" points="0.504848485 0.162780488 474.82202 0.162780488 474.82202 195.855854 0.504848485 195.855854"></polygon>
        <polygon id="path-5" points="0.504848485 0.162780488 474.82202 0.162780488 474.82202 195.855854 0.504848485 195.855854"></polygon>
    </defs>
    <g id="Marshalls-Logo" stroke="none" stroke-width="1" fill="none" fill-rule="evenodd">
        <g>
            <g id="Fill-1-Clipped" transform="translate(397.000000, 106.000000)">
                <mask id="mask-2" fill="white">
                    <use xlink:href="#path-1"></use>
                </mask>
                <g id="path-1"></g>
                <path d="M75.2918261,108.521111 C85.2638551,103.306667 96.114,98.1090741 106.964145,94.1922222 L106.964145,128.220926 C106.964145,128.220926 108.754058,167.322315 80.2814493,167.322315 C80.2814493,167.322315 58.1384928,167.697593 58.1384928,140.833333 C58.1384928,140.833333 55.099971,118.673148 75.2918261,108.521111 Z M165.122321,189.730185 L165.122321,67.2798148 C165.122321,67.2798148 165.720928,20.9035185 122.584986,6.03055556 C86.5677971,-6.56981481 45.7726957,5.17592593 17.9977681,24.2787037 L20.608058,48.5983333 C38.8247536,34.2742593 67.4802029,23.412037 92.2166087,33.3931481 C101.753188,38.6051852 108.691507,46.8481481 108.691507,59.0127778 C107.830232,67.7035185 103.05713,73.787037 96.5518551,78.9846296 C94.7763768,80.5807407 67.9950435,88.1472222 67.9950435,88.1472222 C67.9950435,88.1472222 0.798724638,100.82463 0.798724638,142.347593 C0.798724638,183.858519 33.6306377,194.995185 59.3943188,194.995185 C59.3943188,194.995185 87.7538551,195.861852 108.691507,174.539444 L108.691507,189.881852 L165.122321,189.730185 L165.122321,189.730185 Z" id="Fill-1" fill="#0024CC" fill-rule="nonzero" mask="url(#mask-2)"></path>
            </g>
            <path d="M178.87846,2 L0,296.556869 L32.1323706,296.556869 L161.947052,88.0228015 L168.454874,297 L187.559567,297 L318.4284,88.4587075 L318.243081,296.556869 L380,296.556869 L380,2 L332.99639,2 C296.091456,58.0584773 220.986763,174.479101 220.986763,174.479101 L220.986763,2 L178.87846,2" id="Fill-4" fill="#0024CC" fill-rule="nonzero"></path>
            <path d="M1025,297 L1025,166.902173 C1025.10955,140.68917 1017.77147,120.030873 982.420069,106.871308 C955.598857,100.441067 929.418252,112.081107 912.485511,126.000433 L912.485511,2 L854,2 L854,296.561026 L911.620932,296.561026 L911.620932,174.630041 C911.620932,174.630041 907.80378,140.42868 939.571635,140.42868 C972.16072,140.42868 968.081064,174.678279 968.081064,174.678279 L968.153313,297 L1025,297" id="Fill-5" fill="#0024CC" fill-rule="nonzero"></path>
            <path d="M641.374758,141.591652 L641.374758,112.072224 L585.098612,112.072224 L585,296.922995 L641.33868,297 L641.33868,226.504226 C641.33868,226.504226 635.688938,139.743529 702.800371,139.743529 L703,110.346828 C703,110.346828 675.275616,104.417434 641.374758,141.591652" id="Fill-6" fill="#0024CC" fill-rule="nonzero"></path>
            <polygon id="Fill-7" fill="#0024CC" fill-rule="nonzero" points="1230 296 1287 296 1287 0 1230 0"></polygon>
            <polygon id="Fill-8" fill="#0024CC" fill-rule="nonzero" points="1312 296 1369 296 1369 0 1312 0"></polygon>
            <path d="M770.758336,125.31265 C797.865548,125.31265 823.681483,140.871429 823.681483,140.871429 L826.283275,119.194353 C826.283275,119.194353 805.180384,105 772.922489,105 C740.674212,105 708.127764,124.498318 708.127764,160.254444 C708.127764,160.254444 704.881535,192.746036 734.162518,210.087217 L760.995604,223.897225 C760.995604,223.897225 791.623171,238.51676 791.623171,257.479397 C791.623171,276.432425 767.509703,277.794449 763.438692,277.794449 C759.36768,277.794449 737.896883,277.741602 709.164152,261.750434 L707,285.164271 C707,285.164271 731.986343,300 769.681069,300 C769.681069,300 835,300 835,240.150227 C835,198.446358 802.21309,184.63635 802.21309,184.63635 L767.77902,168.657194 C742.828746,159.180679 745.930698,143.439336 745.930698,143.439336 C745.930698,143.439336 743.655934,125.31265 770.758336,125.31265" id="Fill-9" fill="#0024CC" fill-rule="nonzero"></path>
            <g id="Group-13" transform="translate(1042.000000, 105.000000)">
                <g id="Fill-10-Clipped">
                    <mask id="mask-4" fill="white">
                        <use xlink:href="#path-3"></use>
                    </mask>
                    <g id="path-3"></g>
                    <path d="M385.769152,38.6066098 C385.769152,38.6066098 382.670343,54.3497927 407.597838,63.8274146 L442.030909,79.808439 C442.030909,79.808439 474.82202,93.620061 474.82202,135.328805 C474.82202,195.185573 409.516263,195.185573 409.516263,195.185573 C371.832929,195.185573 346.840525,180.34811 346.840525,180.34811 L349.006566,156.931537 C377.734848,172.924573 399.219758,172.977427 403.277778,172.977427 C407.338202,172.977427 431.460343,171.615244 431.460343,152.66 C431.460343,133.695146 400.823253,119.073902 400.823253,119.073902 L374.001374,105.26228 C344.729778,87.9190732 347.96802,55.4236829 347.96802,55.4236829 C347.96802,19.663378 380.494687,0.162780488 412.768929,0.162780488 C445.009515,0.162780488 466.097758,14.3587927 466.097758,14.3587927 L463.496586,36.0384024 C463.496586,36.0384024 437.691616,20.4778049 410.586061,20.4778049 C383.487717,20.4778049 385.769152,38.6066098 385.769152,38.6066098" id="Fill-10" fill="#0024CC" fill-rule="nonzero" mask="url(#mask-4)"></path>
                </g>
                <g id="Fill-12-Clipped">
                    <mask id="mask-6" fill="white">
                        <use xlink:href="#path-5"></use>
                    </mask>
                    <g id="path-3"></g>
                    <path d="M74.9315354,109.699585 C84.905899,104.495902 95.7529293,99.3090366 106.587939,95.4002683 L106.587939,129.358744 C106.587939,129.358744 108.381354,168.379436 79.9223232,168.379436 C79.9223232,168.379436 57.8099596,168.753939 57.8099596,141.945122 C57.8099596,141.945122 54.7616364,119.830671 74.9315354,109.699585 Z M164.701261,190.741061 L164.701261,68.5434024 C164.701261,68.5434024 165.306626,22.2628171 122.202182,7.42054878 C86.213697,-5.15381707 45.4435758,6.56768293 17.6913333,25.6310366 L20.2852929,49.9004756 C38.5103232,35.6059634 67.1232121,24.7661585 91.8535758,34.7266707 C101.380788,39.9279512 108.333273,48.1539024 108.333273,60.2934268 C107.446182,68.9662317 102.688586,75.0371951 96.1808485,80.224061 C91.1636162,84.2433415 67.3227475,88.9737439 67.3227475,88.9737439 C67.3227475,88.9737439 0.504848485,102.018988 0.504848485,143.456256 C0.504848485,184.881512 33.3151919,195.995195 59.0576566,195.995195 C59.0576566,195.995195 87.3988889,196.860073 108.333273,175.581671 L108.333273,190.892415 L164.701261,190.741061 L164.701261,190.741061 Z" id="Fill-12" fill="#0024CC" fill-rule="nonzero" mask="url(#mask-6)"></path>
                </g>
            </g>
            <path d="M1535.87299,276.252336 L1538.40374,276.252336 C1541.30391,276.252336 1543.75311,275.191528 1543.75311,272.438767 C1543.75311,270.499211 1542.36179,268.520816 1538.40374,268.520816 C1537.28109,268.520816 1536.48468,268.637335 1535.87299,268.702877 L1535.87299,276.252336 Z M1535.87299,288.579075 L1532.35872,288.579075 L1532.35872,266.306955 C1534.19381,266.054497 1535.95455,265.777764 1538.58845,265.777764 C1541.90602,265.777764 1544.10093,266.493871 1545.41069,267.460007 C1546.73004,268.447991 1547.44009,269.933608 1547.44009,272.091637 C1547.44009,275.01675 1545.50185,276.774244 1543.14141,277.492778 L1543.14141,277.655419 C1545.06766,278.021969 1546.37502,279.794028 1546.82839,283.073553 C1547.34414,286.530283 1547.86948,287.860541 1548.2269,288.579075 L1544.53032,288.579075 C1544.02417,287.860541 1543.48204,285.823886 1543.05745,282.901202 C1542.52731,280.070761 1541.1216,279.007525 1538.32458,279.007525 L1535.87299,279.007525 L1535.87299,288.579075 Z M1539.54798,260.097463 C1530.87385,260.097463 1523.76854,267.639641 1523.76854,276.96116 C1523.76854,286.452603 1530.87385,293.895254 1539.63194,293.895254 C1548.38523,293.987498 1555.41137,286.452603 1555.41137,277.033985 C1555.41137,267.639641 1548.38523,260.097463 1539.63194,260.097463 L1539.54798,260.097463 Z M1539.63194,257 C1550.40743,257 1559,265.882146 1559,276.96116 C1559,288.234373 1550.40743,297 1539.54798,297 C1528.76049,297 1520,288.234373 1520,276.96116 C1520,265.882146 1528.76049,257 1539.54798,257 L1539.63194,257 L1539.63194,257 Z" id="Fill-14" fill="#0024CC" fill-rule="nonzero"></path>
        </g>
    </g>
</svg>