<?xml version="1.0" encoding="utf-8"?>
<!-- Generator: Adobe Illustrator 26.0.2, SVG Export Plug-In . SVG Version: 6.00 Build 0)  -->
<svg version="1.1" id="Layer_1" xmlns="http://www.w3.org/2000/svg" xmlns:xlink="http://www.w3.org/1999/xlink" x="0px" y="0px"
	 viewBox="0 0 648.1 124.9" style="enable-background:new 0 0 648.1 124.9;" xml:space="preserve">
<style type="text/css">
	.st0{fill:#0024CC;}
</style>
<g>
	<path class="st0" d="M233.6,122.7V71.8c0,0,0.2-19.3-17.7-25.4C201,41.2,184,46,172.5,54l1.1,10.1c7.6-6,19.5-10.5,29.8-6.3
		c4,2.2,6.8,5.6,6.8,10.6c-0.4,3.6-2.3,6.1-5,8.3c-0.7,0.7-11.9,3.8-11.9,3.8s-27.9,5.3-27.9,22.5s13.6,21.9,24.4,21.9
		c0,0,11.8,0.4,20.5-8.5v6.4L233.6,122.7z M196.3,89c4.1-2.2,8.7-4.3,13.2-6v14.1c0,0,0.7,16.2-11.1,16.2c0,0-9.2,0.2-9.2-11
		C189.2,102.4,187.9,93.2,196.3,89z"/>
	<path class="st0" d="M74.3,0.8L0,123.1h13.4l53.9-86.6l2.7,86.8h7.9l54.4-86.6l-0.1,86.4h25.7V0.8h-19.5
		C123,24,91.8,72.4,91.8,72.4V0.8H74.3z"/>
	<path class="st0" d="M426.3,123.1v-54c0-10.9-3-19.4-17.7-24.9c-11.1-2.7-22,2.2-29,7.9V0.8h-24.3v122.1h23.9V72.3
		c0,0-1.6-14.2,11.6-14.2c13.5,0,11.8,14.2,11.8,14.2V123L426.3,123.1L426.3,123.1z"/>
	<path class="st0" d="M266.5,58.5V46.2h-23.4V123h23.4V93.8c0,0-2.3-36.1,25.6-36.1l0.1-12.2C292.1,45.5,280.6,43,266.5,58.5z"/>
	<rect x="511.2" class="st0" width="23.8" height="123.1"/>
	<rect x="545.3" class="st0" width="23.8" height="123.1"/>
	<path class="st0" d="M320.6,51.8c11.3,0,22,6.5,22,6.5l1.1-9c0,0-8.8-5.9-22.2-5.9c-13.4,0-26.9,8.1-26.9,23
		c0,0-1.4,13.5,10.8,20.7l11.2,5.7c0,0,12.7,6.1,12.7,14s-10,8.5-11.7,8.5s-10.6,0-22.6-6.7l-0.9,9.7c0,0,10.4,6.2,26.1,6.2
		c0,0,27.2,0,27.2-24.9c0-17.4-13.6-23.1-13.6-23.1l-14.3-6.7c-10.4-3.9-9.1-10.5-9.1-10.5S309.3,51.8,320.6,51.8z"/>
	<path class="st0" d="M593.5,59.4c0,0-1.3,6.6,9.1,10.5l14.3,6.7c0,0,13.6,5.7,13.6,23.1c0,24.9-27.2,24.9-27.2,24.9
		c-15.7,0-26.1-6.2-26.1-6.2l0.9-9.7c12,6.7,20.9,6.7,22.6,6.7c1.7,0,11.7-0.6,11.7-8.5s-12.7-14-12.7-14l-11.2-5.7
		c-12.2-7.2-10.8-20.7-10.8-20.7c0-14.9,13.5-23,27-23c13.4,0,22.2,5.9,22.2,5.9l-1.1,9c0,0-10.7-6.5-22-6.5
		C592.5,51.8,593.5,59.4,593.5,59.4z"/>
	<path class="st0" d="M501.5,122.7V71.8c0,0,0.3-19.3-17.7-25.4c-15-5.2-31.9-0.4-43.5,7.6l1.1,10.1c7.6-6,19.5-10.5,29.8-6.3
		c4,2.2,6.9,5.6,6.9,10.6c-0.4,3.6-2.3,6.1-5.1,8.3c-2.1,1.7-12,3.6-12,3.6s-27.8,5.4-27.8,22.7c0,17.2,13.6,21.9,24.4,21.9
		c0,0,11.8,0.4,20.5-8.5v6.4L501.5,122.7z M464.2,89c4.1-2.2,8.7-4.3,13.2-6v14.1c0,0,0.7,16.2-11.1,16.2c0,0-9.2,0.2-9.2-11
		C457,102.4,455.8,93.2,464.2,89z"/>
	<g>
		<path class="st0" d="M640,106.9c4.5,0,8.1,3.7,8.1,8.2c0,4.6-3.6,8.3-8.1,8.3s-8.1-3.6-8.1-8.3C631.8,110.5,635.5,106.9,640,106.9
			L640,106.9z M640,108.2c-3.6,0-6.6,3.1-6.6,6.9c0,3.9,3,7,6.6,7s6.6-3.1,6.6-6.9C646.6,111.3,643.7,108.2,640,108.2L640,108.2z
			 M638.5,119.9H637v-9.2c0.8-0.1,1.5-0.2,2.6-0.2c1.4,0,2.3,0.3,2.8,0.7c0.5,0.4,0.8,1,0.8,1.9c0,1.2-0.8,1.9-1.8,2.2v0.1
			c0.8,0.2,1.3,0.9,1.5,2.2c0.2,1.4,0.4,2,0.6,2.3H642c-0.2-0.3-0.4-1.1-0.6-2.3c-0.2-1.2-0.8-1.6-2-1.6h-1v3.9H638.5z M638.5,114.8
			h1.1c1.2,0,2.2-0.4,2.2-1.6c0-0.8-0.6-1.6-2.2-1.6c-0.5,0-0.8,0-1.1,0.1V114.8z"/>
	</g>
</g>
</svg>
