<svg xmlns="http://www.w3.org/2000/svg" viewBox="0 0 223.54 42.63"><defs><style>.cls-1{fill:#f18a00;}</style></defs><title>Sierra_Logo_144</title><g id="logo"><path class="cls-1" d="M40.91,12H3a21.93,21.93,0,0,0,6.55,29.1c4.8-.83,11.64-2.86,11.64-7.67,0-5.59-10.94-7.51-10.3-13.22.61-5.34,9.82-6.19,9.82-6.19s-4.83,1.39-4.51,4.22c.49,4.28,17,6,17.94,15.85a10.29,10.29,0,0,1-4.87,9.62A21.94,21.94,0,0,0,40.91,12" transform="translate(0 -1.09)"/><path class="cls-1" d="M9.59,10.41s7.51-6.34,9-6.32,9,6.32,9,6.32h2.2L25.06,7.13s1-1.46,2-1.42,6.67,4.7,6.67,4.7h6.14a21.61,21.61,0,0,0-3.44-3.83,22,22,0,0,0-9.13-4.83,22.18,22.18,0,0,0-10.74,0A22,22,0,0,0,7.44,6.58,21.61,21.61,0,0,0,4,10.41H9.59Z" transform="translate(0 -1.09)"/><path class="cls-1" d="M215.87,7.69h-1.06V7h2.95v.69h-1.07v3.78h-.82Zm2.5-.69h1l1.44,3.35L222.27,7h1v4.47h-.77V8l-1.43,3.5h-.54L219.14,8v3.49h-.77Z" transform="translate(0 -1.09)"/><path class="cls-1" d="M93.54,8.41a.85.85,0,0,0-.83-.82H87.92a.85.85,0,0,0-.82.82l.39,2.28V34.75L87.1,37a.85.85,0,0,0,.82.83h4.79a.85.85,0,0,0,.83-.83l-.39-2.28V10.69Z" transform="translate(0 -1.09)"/><path class="cls-1" d="M121.09,12.78l2.31.39a.82.82,0,0,0,.82-.82l-.38-3.94a.82.82,0,0,0-.82-.82H105a.82.82,0,0,0-.82.82l.39,2.28V34.76L104.21,37a.82.82,0,0,0,.82.82h18a.82.82,0,0,0,.82-.82l.38-3.94a.82.82,0,0,0-.82-.82l-2.29.39h-10.9V25.11h8.42l2.27.38a.82.82,0,0,0,.81-.82V20.3a.83.83,0,0,0-.81-.81l-2.27.38h-8.42V12.78Z" transform="translate(0 -1.09)"/><path class="cls-1" d="M154.74,34.76l-4.93-9.14c3.76-1.51,6.4-4.75,6.4-8.73a9.37,9.37,0,0,0-9.43-9.3H134a.82.82,0,0,0-.82.82l.38,2.31v24L133.21,37a.82.82,0,0,0,.82.83h4.75a.85.85,0,0,0,.82-.83l-.38-2.27V26H144l4.38,8.73,1,2.73a.75.75,0,0,0,.69.39h5.31a.82.82,0,0,0,.74-1.26Zm-8.43-13.37h-7.05V12.78h7.05A4.3,4.3,0,0,1,150.59,17a4.41,4.41,0,0,1-4.28,4.42" transform="translate(0 -1.09)"/><path class="cls-1" d="M223.45,36.73l-1.29-2L209.75,7.64a.74.74,0,0,0-.74-.48h-.43a.77.77,0,0,0-.73.48L195.31,34.77l-1.29,2a.76.76,0,0,0,.73,1.13h4.92a1.33,1.33,0,0,0,1.26-.87l.23-2.23,1.11-2.43H215.2l1.1,2.42.24,2.24a1.25,1.25,0,0,0,1.25.87h4.93a.76.76,0,0,0,.73-1.13m-19.06-9.2L208.62,18h.14l4.32,9.52Z" transform="translate(0 -1.09)"/><path class="cls-1" d="M187.06,34.76l-4.93-9.14c3.77-1.51,6.4-4.75,6.4-8.73a9.37,9.37,0,0,0-9.43-9.3H166.35a.82.82,0,0,0-.82.82l.39,2.31v24L165.53,37a.82.82,0,0,0,.82.83h4.76a.85.85,0,0,0,.82-.83l-.39-2.27V26h4.8l4.38,8.73,1,2.73a.76.76,0,0,0,.69.39h5.32a.82.82,0,0,0,.73-1.26Zm-8.43-13.37h-7V12.78h7A4.3,4.3,0,0,1,182.91,17a4.41,4.41,0,0,1-4.28,4.42" transform="translate(0 -1.09)"/><path class="cls-1" d="M68.67,20c-3.47-1.41-5.05-2.78-5.05-4.79,0-1.37,1.32-3,3.76-3a7.81,7.81,0,0,1,5.78,2.7,1.12,1.12,0,0,0,1.5-.51l1.79-2.8a1.06,1.06,0,0,0-.26-1.41,15.08,15.08,0,0,0-8.55-2.86c-6.8,0-9.62,4.4-9.62,8.21,0,5,4,7.61,8,9.24,3.59,1.45,5.43,2.94,5.43,5.12,0,1.84-1.67,3.3-3.89,3.3a7.27,7.27,0,0,1-6.16-3,1,1,0,0,0-1.45.3l-1.84,3c-.39.68-.18.9.21,1.28a13.79,13.79,0,0,0,9.41,3.33c6,0,9.83-4.06,9.83-8.46,0-5.52-4.78-8-8.93-9.66" transform="translate(0 -1.09)"/></g></svg>