<svg xmlns="http://www.w3.org/2000/svg" viewBox="0 0 345 82.5"><switch><g><g fill="#CF0A2C"><path fill-rule="evenodd" clip-rule="evenodd" d="M259.6 25.8L242.7 3.1l-.4-.1-.3.9v47.7c.3 0 .5-.3.7-.5l17.7-23.3c.4-.8-.4-1.4-.8-2zm-36.8-2.5c-2.7-4.3-7.4-7.1-12.9-6.6-5 .3-9.7 4.1-11.3 8.7-1.7 4.1-.9 9.3 1.7 12.8 3 4 7.6 6.1 12.8 5.4 4.3-.6 8.4-3.6 10.3-7.6 1.8-3.8 1.7-9.2-.6-12.7zm1.4-19c.7-.4.3-1.7.4-2.5H263c2.1 2.2 3.7 4.7 5.5 7.2 0 .8-1.6.3-1.3 1.3l14.3 19.4 5.6 7.7-.3.9c-2.9 4-5.7 8-8.9 11.9h-.3c-2-2.3-3.5-4.9-5.6-7.1l-.5.1-12 15.7-.7.2h-34.4v-2.7c-.6-.3-1.1.3-1.7.6-8 5.5-20.6 4.2-28.2-1.1-10.5-6.8-15.8-19-13.6-31.2 1.8-10.8 11.2-21.1 21.9-23.7 7.2-1.9 15.7-1.1 21.4 3.3zM343.4 18.5c0-3.3-2.7-6-6-6s-6 2.7-5.9 6c0 3.3 2.7 6 6 5.9 3.2 0 5.9-2.6 5.9-5.9zm.8 0a6.7 6.7 0 1 1-6.7-6.7c3.7-.1 6.7 3 6.7 6.7z"/><path fill-rule="evenodd" clip-rule="evenodd" d="M338.3 15.4h-2.4V18h2.4c.6 0 1.3-.2 1.4-1.1.1-1.3-.8-1.5-1.4-1.5zM335 22v-7.4h3.3c1.2 0 2.3.2 2.4 1.9 0 1-.3 1.3-1 1.9.8.5.8.6.9 1.9.1 1-.1 1.1.4 1.8h-1.1l-.2-.9c-.2-.9.3-2.2-1.3-2.2H336v3h-1z"/><path d="M52.6 31.7c2.1 2.9 2.5 7 .5 10.1-2.1 3.2-5.9 5.2-9.9 4.4-3.4-.6-6.6-3.6-7.3-7.1-.9-4 .7-7.8 4.1-10 2.4-1.6 6.4-2 9.1-.6 1.4.6 2.5 2 3.5 3.2zM93 31.9c1.5 2.5 2.1 6 .7 8.7-1.4 3.3-4.9 5.5-8.5 5.6-3.6 0-6.9-1.8-8.5-5.1-1.2-2.1-1.2-5.2-.3-7.5 1.3-3.3 4.3-5.6 7.9-5.9 3.5-.1 6.7 1.2 8.7 4.2zM137.7 6.1l.8-.1c7-6.3 18.9-7.5 27.2-3.1 7.9 3.9 13.2 12.2 13.7 20.9l.1 35.3h-17V24.4c-.3-3-2.2-6.4-5.5-7.3-3-.7-6.3 0-8.4 2.4-2 2-2.4 4.7-2.1 7.7v32.1h-16.9l-.1-35.3c-.1-3.1-2.4-5.8-5.3-6.8-2.8-1-5.9-.2-8 1.6-1.6 1.6-2.5 3.5-2.7 5.8v34.7h-17l.1-34.6c.2-10.1 7.1-19.5 16.5-22.9 8.2-3.3 18-1.2 24.6 4.3zM302.3 2.2c-2.3 3.3-4.6 6.6-7.2 9.7h-.2c-1-.9-1.4-2.7-3.1-2.3l-16.3-.1c-.1-.1-.3-.1-.4-.3 1.7-2.4 3.4-4.8 5.4-7l.7-.4H302l.3.4z"/><path d="M49.6 18.7H33.5v40.4H16V18.7H0V1.9h49.6v16.8zM73.7 58.5c-.9 9.4-7.7 18.7-17 21.8-3.6 1.1-7.6 1.7-11.7 1.4l-.3-.4V65.1c4.3.3 8.8-.5 10.8-4.4.8-1.6 1.4-3.4 1.4-5.1V2.1h17l-.2 56.4zM292.3 11.2c2.9 3.3 5.2 7.1 8.1 10.5l.6-.2c2.7-3.2 5.1-6.7 7.7-9.9l20.5.1c.5 0 .3.6.1.8l-17 23.9c-.7.7-.2 1.4.2 2.1l15.6 21.1c5.7 7.3 11.4 15 16.8 22.5.2.4-.4.5-.7.5l-21.2-.1-21.8-28.9-.6-.3c-3.5 4-6.2 8.5-9.6 12.6h-22.1v-.6l20-27.3c.3-.7-.2-1.1-.5-1.6l-18.1-24.8.4-.4h21.6z"/></g></g></switch></svg>